# xmcd
#
# Track frame offsets:
# 150
# 24113
# 47170
# 73353
# 97535
# 118298
# 139723
# 159730
# 181703
# 202738
# 226368
# 249055
#
# Disc length: 3613 seconds
#
# Revision: 59
# Processed by: cddbd v1.5.2PL0 Copyright (c) Steve Scherf et al.
# Submitted via: TinyPlayer 2.8
#
DISCID=910e1b0c
DTITLE=U2 - Pop
DYEAR=1997
DGENRE=Alternative Rock
TTITLE0=Discothèque
TTITLE1=Do You Feel Loved
TTITLE2=Mofo
TTITLE3=If God Will Send His Angels
TTITLE4=Staring at the Sun
TTITLE5=Last Night on Earth
TTITLE6=Gone
TTITLE7=Miami
TTITLE8=The Playboy Mansion
TTITLE9=If You Wear That Velvet Dress
TTITLE10=Please
TTITLE11=Wake Up Dead Man
EXTD=
EXTT0=
EXTT1=
EXTT2=
EXTT3=
EXTT4=
EXTT5=
EXTT6=
EXTT7=
EXTT8=
EXTT9=
EXTT10=
EXTT11=
PLAYORDER=
